<svg id="Content" xmlns="http://www.w3.org/2000/svg" width="426.2" height="418.9" viewBox="0 0 426.2 418.9"><title>hero-dog</title><polyline points="345.5 94.5 345.5 61.6 374.3 61.6 374.3 112.6" fill="#d6cbea" stroke="#000" stroke-linecap="round" stroke-linejoin="round" stroke-width="12.1"/><rect x="183.7" y="132.3" width="204.7" height="140" fill="#d6cbea" stroke="#000" stroke-linecap="round" stroke-linejoin="round" stroke-width="12.1"/><polygon points="286 57.3 166.2 132.3 405.8 132.3 286 57.3" fill="#7247bb" stroke="#000" stroke-linecap="round" stroke-linejoin="round" stroke-width="12.1"/><rect x="208.3" y="205.6" width="36" height="66.67" fill="#fb6333" stroke="#000" stroke-linecap="round" stroke-linejoin="round" stroke-width="12.1"/><rect x="282.3" y="205.6" width="76" height="36" fill="#7247bb" stroke="#000" stroke-linecap="round" stroke-linejoin="round" stroke-width="12.1"/><rect x="208.3" y="154" width="32.3" height="32.33" fill="#7247bb" stroke="#000" stroke-linecap="round" stroke-linejoin="round" stroke-width="12.1"/><rect x="278.7" y="154" width="32.3" height="32.33" fill="#7247bb" stroke="#000" stroke-linecap="round" stroke-linejoin="round" stroke-width="12.1"/><rect x="329.3" y="154" width="32.3" height="32.33" fill="#7247bb" stroke="#000" stroke-linecap="round" stroke-linejoin="round" stroke-width="12.1"/><path d="M77.8,287.5s-40-18.1-54-33.9c0,0-30.6,52.5,62,99.7" fill="#7247bb" stroke="#000" stroke-linecap="round" stroke-linejoin="round" stroke-width="12.1"/><path d="M72,104.2V38.3C72,8.4,95.3,20.8,95.3,20.8l29.9,17.9" fill="#7247bb" stroke="#000" stroke-linecap="round" stroke-linejoin="round" stroke-width="12.1"/><path d="M217.6,104.2V38.3c0-29.9-23.3-17.5-23.3-17.5L164.4,38.7" fill="#7247bb" stroke="#000" stroke-linecap="round" stroke-linejoin="round" stroke-width="12.1"/><path d="M94.6,194s-16.8,5.9-16.8,34.9V396.3H211.6V228.9c0-29-16.8-34.9-16.8-34.9" fill="#d6cbea" stroke="#000" stroke-linecap="round" stroke-linejoin="round" stroke-width="12.1"/><path d="M77.6,321.9c-45.9,0-29.5,48.4-29.5,48.4H23.9v25.9h54Z" fill="#7247bb" stroke="#000" stroke-linecap="round" stroke-linejoin="round" stroke-width="12.1"/><path d="M211.8,321.9c45.9,0,29.5,48.4,29.5,48.4h24.2v25.9h-54Z" fill="#7247bb" stroke="#000" stroke-linecap="round" stroke-linejoin="round" stroke-width="12.1"/><line x1="110.4" y1="396.2" x2="110.4" y2="321.9" fill="none" stroke="#000" stroke-linecap="round" stroke-linejoin="round" stroke-width="12.1"/><line x1="180.5" y1="396.2" x2="180.5" y2="321.9" fill="none" stroke="#000" stroke-linecap="round" stroke-linejoin="round" stroke-width="12.1"/><path d="M217.6,139.4a72.9,72.9,0,0,1-145.8,0V108.9a72.9,72.9,0,0,1,145.8,0Z" fill="#d6cbea" stroke="#000" stroke-linecap="round" stroke-linejoin="round" stroke-width="12.1"/><line x1="140.6" y1="113.5" x2="148.8" y2="113.5" fill="none" stroke="#000" stroke-linecap="round" stroke-linejoin="round" stroke-width="12.1"/><path d="M120.8,95h-1.2l-1.1-.3-1-.6-.9-.7a6,6,0,0,1,0-8.6l.9-.7,1-.6,1.1-.3a6,6,0,1,1,1.2,12Z"/><path d="M168.6,95a6.1,6.1,0,0,1-4.3-1.8l-.7-.9-.6-1a6.5,6.5,0,0,1-.3-1.1,5.9,5.9,0,0,1-.1-1.2,6.1,6.1,0,0,1,1.8-4.3l.9-.7,1-.6,1.1-.3a6.2,6.2,0,0,1,2.4,0l1.1.3,1,.6.9.8a6.1,6.1,0,0,1,1.8,4.3,6,6,0,0,1-.5,2.3l-.5,1-.7.9A6.1,6.1,0,0,1,168.6,95Z"/><path d="M156.1,145.5v23.7c0,16-11.4,14.8-11.4,14.8s-11.4,1.2-11.4-14.8V145.5" fill="#fb6333" stroke="#000" stroke-linecap="round" stroke-linejoin="round" stroke-width="12.1"/><path d="M123.2,140.6c4.8,7.6,18,5.3,21.5,0" fill="none" stroke="#000" stroke-linecap="round" stroke-linejoin="round" stroke-width="12.1"/><path d="M144.7,140.6c4.8,7.6,18,5.3,21.5,0" fill="none" stroke="#000" stroke-linecap="round" stroke-linejoin="round" stroke-width="12.1"/></svg>