<svg id="Layer_1" data-name="Layer 1" xmlns="http://www.w3.org/2000/svg" width="3.2in" height="3.1in" viewBox="0 0 230 225"><title>logoArtboard 2</title><path d="M29.5,29.6h7.9v79.9H50.5v6.7h-21Z" fill="#231f20"/><path d="M60.6,43.5c0-8.5,3.2-14.6,13.9-14.6S88.4,35,88.4,43.5v58.8c0,8.5-3.2,14.6-13.9,14.6s-13.9-6.1-13.9-14.6Zm7.9,58.6c0,4.8,1,8.2,6,8.2s6-3.4,6-8.2V43.7c0-4.8-1-8.2-6-8.2s-6,3.4-6,8.2Z" fill="#231f20"/><path d="M116.7,29.6h7.9L113,78.5v37.7h-7.9V78.5l-11.6-49h7.9l7.6,39.4h.2Z" fill="#231f20"/><path d="M149,92.2H135.1l-3.2,24h-7.9l12.7-86.6h10.8l12.7,86.6h-7.9Zm-6.8-56.6h-.2l-6,49.9h12.2Z" fill="#231f20"/><path d="M168.1,29.6H176v79.9h13.1v6.7h-21Z" fill="#231f20"/><path d="M29.3,127.7H41c11.1,0,12.2,3,12.2,15,0,7.4-1,10.6-7.2,12.5v.2c5.2.5,6.9,3.2,6.9,8.4v11.9a37.6,37.6,0,0,0,.5,7H46.3a9.4,9.4,0,0,1-.9-4.9V165.2c0-5.2-.9-6.5-5.9-6.5H36.9v23.9H29.3Zm7.6,24.6h2c6,0,6.8-1.1,6.8-9.3s-.5-8.9-5.2-8.9H36.9Z" fill="#231f20"/><path d="M58.8,127.7H79.5v6.4H66.4v17.2H78.7v6.4H66.4v18.5H79.5v6.4H58.8Z" fill="#231f20"/><path d="M81.9,166.7h7.6v4.5c0,3.6,1.4,5.9,4.4,5.9s5-2.7,5-6.3-.2-6.2-8.1-14c-4.9-4.9-8.9-9.3-8.9-16.7,0-9,4.2-12.8,12.5-12.8a12.9,12.9,0,0,1,8.9,3c1.3,1.2,2.2,3.1,2.2,7v5.2H98.3v-4.3c0-3.1-1.3-4.9-4.3-4.9s-4.6,1.7-4.6,6,.8,6,7.8,13.3,8.8,10.4,8.8,17c0,8.6-3.3,13.5-12.4,13.5-7,0-11.8-3-11.8-9.8Z" fill="#231f20"/><path d="M110,141.7c0-7.7,2.5-14.4,12.8-14.4,7.5,0,11,3.8,11,10v5.5h-7.1v-3.8c0-3.5-1.2-5.7-4.4-5.7s-4.7,2.8-4.7,9.4v26.9c0,6.5,2.1,7.6,4.5,7.6s4.6-2,4.6-6.5v-3.8h7.1v6.1c0,5.8-2.4,10.2-11.2,10.2S110,177.9,110,169.4Z" fill="#231f20"/><path d="M163.2,170.2c0,6.4-2.5,12.8-12.8,12.8s-12.9-6.5-12.9-12.8V127.7H145v43.8c0,3.7,1.4,5.6,5.3,5.6s5.2-1.9,5.2-5.6V127.7h7.6Z" fill="#231f20"/><path d="M168.6,127.7h20.7v6.4H176.2v17.2h12.3v6.4H176.2v18.5h13.1v6.4H168.6Z" fill="#231f20"/><path d="M206.4,199.5H13.9V13.5H206.4Zm-185.5-7H199.4V20.5H20.9Z" fill="#231f20"/><path d="M214.4,192.8a3.7,3.7,0,1,1-3.7,3.7A3.7,3.7,0,0,1,214.4,192.8Zm0,.5a3.2,3.2,0,1,0,3.2,3.2A3.2,3.2,0,0,0,214.4,193.3Zm.1,3.5h-.9v1.9h-.5v-4.4h1.7c1,0,1.4.4,1.4,1.2a1.2,1.2,0,0,1-1.1,1.2l1.3,1.9h-.6Zm.1-.4c.6,0,1.1-.2,1.1-.8s-.5-.8-1-.8h-1v1.5Z" fill="#231f20"/></svg>